<?xml version="1.0" encoding="utf-8"?>
<!-- Generator: Adobe Illustrator 28.3.0, SVG Export Plug-In . SVG Version: 6.00 Build 0)  -->
<svg version="1.1" id="Layer_1" xmlns="http://www.w3.org/2000/svg" xmlns:xlink="http://www.w3.org/1999/xlink" x="0px" y="0px"
	 viewBox="0 0 448 512" style="enable-background:new 0 0 448 512;" xml:space="preserve">
<style type="text/css">
	.st0{fill-rule:evenodd;clip-rule:evenodd;fill:#010101;}
	.st1{fill-rule:evenodd;clip-rule:evenodd;fill:#EE1D51;}
	.st2{fill-rule:evenodd;clip-rule:evenodd;fill:#66C8CF;}
	.st3{fill-rule:evenodd;clip-rule:evenodd;fill:#FFFFFF;}
	.st4{fill-rule:evenodd;clip-rule:evenodd;fill:#EE1D52;}
	.st5{fill-rule:evenodd;clip-rule:evenodd;fill:#69C9D0;}
</style>
<path class="st0" d="M45.1,24.7h357.5c24.7,0,44.7,20,44.7,44.7v357.5c0,24.7-20,44.7-44.7,44.7H45.1c-24.7,0-44.7-20-44.7-44.7
	V69.4C0.4,44.7,20.4,24.7,45.1,24.7z"/>
<path class="st1" d="M281,435.9c13.6,0,24.6-10.9,24.6-24.4S294.6,387,281,387h-3.7c13.6,0,24.6,10.9,24.6,24.4s-11,24.4-24.6,24.4
	H281z"/>
<path class="st2" d="M277,387h-3.7c-13.6,0-24.6,10.9-24.6,24.4s11,24.4,24.6,24.4h3.7c-13.6,0-24.6-10.9-24.6-24.4
	S263.4,387,277,387z"/>
<ellipse class="st0" cx="277.1" cy="411.5" rx="12" ry="11.9"/>
<path class="st3" d="M89.8,376v12.4h14.5v47.2h14.5v-46.8h11.8l4-12.7H89.8z M208.5,376v12.4H223v47.2h14.5v-46.8h11.8l4-12.7H208.5
	z M137.3,383c0-3.9,3.2-7,7.1-7c3.9,0,7.1,3.1,7.1,7s-3.2,7-7.1,7C140.5,390,137.3,386.9,137.3,383z M137.3,395.1h14.2v40.5h-14.2
	V395.1z M157.6,376v59.6h14.2v-15.4l4.4-4l13.8,19.7h15.2l-19.9-28.8l17.9-17.4h-17.2l-14.2,14.1V376H157.6z M310.4,376v59.6h14.2
	v-15.4l4.4-4l13.8,19.7h15.2L338,407.1l17.9-17.4h-17.2l-14.2,14.1V376H310.4z"/>
<path class="st4" d="M288.5,169.8c19.6,14,43.5,22.2,69.4,22.2v-49.8c-4.9,0-9.8-0.5-14.6-1.5v39.2c-25.9,0-49.9-8.2-69.4-22.2
	v101.6c0,50.8-41.2,92-92.1,92c-19,0-36.6-5.7-51.3-15.6c16.7,17.1,40,27.7,65.8,27.7c50.9,0,92.1-41.2,92.1-92L288.5,169.8
	L288.5,169.8z M306.5,119.6c-10-10.9-16.6-25-18-40.6v-6.4h-13.8C278.2,92.4,290,109.3,306.5,119.6z M162.7,296.8
	c-5.6-7.3-8.6-16.3-8.6-25.5c0-23.2,18.9-42.1,42.1-42.1c4.3,0,8.6,0.7,12.8,2v-50.9c-4.8-0.7-9.7-0.9-14.6-0.8v39.6
	c-4.1-1.3-8.4-2-12.8-2c-23.3,0-42.1,18.8-42.1,42.1C139.6,275.6,149,289.9,162.7,296.8z"/>
<path class="st3" d="M273.9,157.7c19.6,14,43.5,22.2,69.4,22.2v-39.2c-14.4-3.1-27.2-10.6-36.9-21.1c-16.5-10.3-28.3-27.2-31.8-47
	h-36.3v198.9c-0.1,23.2-18.9,42-42.1,42c-13.7,0-25.8-6.5-33.5-16.6c-13.7-6.9-23.2-21.2-23.2-37.6c0-23.2,18.9-42.1,42.1-42.1
	c4.5,0,8.8,0.7,12.8,2v-39.6c-50,1-90.1,41.8-90.1,92c0,25,10,47.8,26.2,64.3c14.7,9.8,32.3,15.6,51.3,15.6
	c50.9,0,92.1-41.2,92.1-92L273.9,157.7z"/>
<path class="st5" d="M343.3,140.7v-10.6c-13,0-25.8-3.6-36.9-10.5C316.3,130.3,329.2,137.7,343.3,140.7z M274.7,72.6
	c-0.3-1.9-0.6-3.8-0.8-5.7v-6.4h-50.1v198.9c-0.1,23.2-18.9,42-42.1,42c-6.8,0-13.3-1.6-19-4.5c7.7,10.1,19.8,16.6,33.5,16.6
	c23.2,0,42-18.8,42.1-42V72.6H274.7z M194.5,179.4v-11.3c-4.2-0.6-8.4-0.9-12.6-0.9c-50.9,0-92.1,41.2-92.1,92
	c0,31.9,16.2,59.9,40.8,76.5c-16.2-16.6-26.2-39.3-26.2-64.3C104.3,221.3,144.5,180.5,194.5,179.4L194.5,179.4z"/>
<path class="st3" d="M277.3,435.9c13.6,0,24.6-10.9,24.6-24.4s-11-24.4-24.6-24.4H277c-13.6,0-24.6,10.9-24.6,24.4
	s11,24.4,24.6,24.4H277.3z M265.2,411.5c0-6.6,5.4-11.9,12-11.9c6.6,0,12,5.3,12,11.9s-5.4,11.9-12,11.9
	C270.5,423.3,265.2,418,265.2,411.5z"/>
</svg>
