<?xml version="1.0" encoding="utf-8"?>
<!-- Generator: Adobe Illustrator 28.3.0, SVG Export Plug-In . SVG Version: 6.00 Build 0)  -->
<svg version="1.1" id="Layer_1" xmlns="http://www.w3.org/2000/svg" xmlns:xlink="http://www.w3.org/1999/xlink" x="0px" y="0px"
	 viewBox="0 0 448 512" style="enable-background:new 0 0 448 512;" xml:space="preserve">
<style type="text/css">
	.st0{fill:#FF0000;}
	.st1{fill:#FFFFFF;}
</style>
<path class="st0" d="M438.6,144.9c-5.2-19.4-20.3-34.7-39.6-39.9c-34.9-9.4-175-9.4-175-9.4s-140.1,0-175,9.4
	c-19.3,5.2-34.5,20.5-39.6,39.9C0,180.1,0,253.5,0,253.5S0,326.8,9.4,362c5.1,19.4,20.3,34.7,39.6,39.9c34.9,9.4,175,9.4,175,9.4
	s140.1,0,175-9.4c19.3-5.2,34.5-20.5,39.6-39.9c9.4-35.2,9.4-108.5,9.4-108.5S448,180.1,438.6,144.9"/>
<path class="st1" d="M178.2,320.1l117.1-66.6l-117.1-66.6V320.1z"/>
</svg>
